Patient4_TMGait_0pt8_01_right_47_EMG.mot
version=1
nRows=23
nColumns=33
inDegrees=no
endheader
time	1LAddLong	2LGlutMax	3LGlutMed	4LIliopsoas	5LSemiMemb	6LBicFemLong	7LRecFem	8LVastMed	9LVastLat	10LGasMed	11LTibAnt	12lTibPost	13LPeroneusLong	14LSol	15LExtDigLong	16LFlexDigLong	17RAddLong	18RGlutMax	19RGlutMed	20RIliopsoas	21RSemiMemb	22RBicFemLong	23RRecFem	24RVastMed	25RVastLat	26RGasMed	27RTibAnt	28RTibPost	29RPeroneusLong	30RSol	31RExtDigLong	32RFlexDigLong
54.085	0.009308	0.15137	-0.12634	-0.000916	0.049896	0.020142	0.28107	-0.005341	0.003967	-0.54352	-0.006714	-0.037384	0.074615	-0.046844	-0.020752	0.20279	0.030518	0.017395	-0.2887	0.012817	0.039825	-0.031738	0.011292	0.007477	0.017548	-0.018616	0.11246	-0.00946	-0.38544	-0.11932	-0.000305	0.001373
54.086	0.014648	0.1622	-0.19333	-0.008392	0.012665	0.086212	0.37552	-0.000763	0.085754	-0.6752	-0.005646	-0.1683	0.13748	0.063629	-0.004883	0.092163	0.054474	0.034027	-0.22049	-0.01358	0.053253	-0.023193	-0.019531	-0.046997	0.002289	-0.018311	-0.34317	-0.003662	0.37689	-0.10971	-0.00061	0.006104
54.087	0.002441	0.14999	-0.33661	0.019073	-0.029755	0.082092	0.37872	0.000153	0.19318	-0.37735	-0.010376	0.51559	0.1535	-0.037994	0.003967	0.054321	0.026855	0.004425	0.063934	0.023041	-0.019684	0.058289	-0.039978	-0.049591	0.009613	-0.014496	-0.42374	-0.002899	0.59082	-0.073395	0.00061	0.005646
54.088	0.014191	0.1387	-0.28275	0.010986	-0.022888	0.032349	0.3865	0.004425	0.15549	-0.21545	0.002289	-0.5304	0.061798	-0.09491	-0.016174	-0.009003	-0.004272	0.009003	0.42847	-0.004272	-0.055389	0.13779	-0.015564	-0.006561	0.010681	-0.023041	-0.23102	-0.006256	0.46967	0.006561	0.00061	-0.002136
54.089	0.010986	0.17059	-0.032196	0.010681	-0.001221	0.086517	0.31342	0.001678	0.090027	-0.20081	0.007629	0.013428	0.028687	-0.3154	-0.006561	-0.058441	-0.030518	0.043335	0.62027	-0.005798	-0.14618	0.087433	-0.035858	-0.01358	0.012207	-0.028076	-0.11017	-0.008545	0.17807	0.022736	0.003662	-0.011292
54.09	0.016479	0.086212	-0.019073	0.029602	0.051727	0.1001	0.29648	0.003052	0.049133	-0.16693	0.004883	0.03418	0.050507	-0.041504	0.00824	-0.006714	-0.026245	0.018005	0.12528	-0.036163	-0.12344	0.029449	-0.025635	-0.029602	0.008545	-0.024109	-0.02533	-0.007782	0.12619	-0.008545	0.000916	-0.006256
54.091	0.005188	0.10468	0.019989	-0.016022	0.022888	0.06134	0.26749	0.006256	0.057526	-0.12375	0.006256	0.00412	0.002441	0.083313	-0.002441	0.051575	0.003357	0.015564	-0.17136	-0.10422	-0.097504	-0.007477	-0.018616	0.007477	-0.000763	-0.02243	0.016327	-0.003357	0.10834	-0.041351	0.001221	-0.003662
54.092	-0.00885	0.14832	0.007477	-0.019379	0.002289	0.01297	0.26016	0.007935	0.05127	-0.041046	0.006866	-0.093231	0.029602	-0.34302	0.015259	-0.013428	0.033875	0.015259	-0.41779	-0.0914	-0.093689	-0.036011	-0.027618	0.005798	0.009155	-0.022583	0.077667	-0.007324	-0.032043	-0.071259	-0.001221	-0.008698
54.093	-0.009613	0.23621	-0.065765	-0.018921	0.00351	-0.097198	0.24612	0.002747	0.068817	-0.040436	-0.003357	0.47409	0.066223	-0.19012	0.045776	-0.044708	0.035095	0.040741	-0.67993	-0.033112	-0.23041	0.009918	-0.014343	-0.067444	0.022278	-0.02243	0.059509	-0.007629	-0.18829	-0.044403	0.000305	-0.01236
54.094	-0.010071	0.27786	-0.10193	-0.005188	0.030823	-0.12131	0.26718	0.007782	0.056458	0.14633	-0.012512	-0.45898	0.040894	0.18723	0.064087	-0.040436	0.033417	0.057068	-0.73196	0.12161	-0.23712	-0.00824	-0.014496	-0.020447	0.01358	-0.027924	0.1265	-0.006409	0.001678	-0.0177	-0.000305	-0.007324
54.095	-0.00885	0.3212	-0.095062	0.010071	-0.01358	-0.2388	0.23239	0.005798	0.059204	0.28625	-0.010071	-0.042267	0.024719	0.11231	0.059662	0.032501	0.016327	0.033417	-0.44418	0.23926	-0.096588	-0.016785	0.035858	-0.014954	0.018616	-0.023651	0.25391	-0.007477	-0.14542	-0.029602	0.001068	-0.000916
54.096	0.013428	0.34439	-0.099945	0.00473	-0.02243	-0.14221	0.26962	-0.001831	0.065308	0.063324	-0.004578	-0.01236	0.015411	0.18707	0.056152	0.067444	-0.010529	0.055847	1.487	0.029602	-0.089111	0.075378	0.024872	0.003052	0.026093	-0.02533	0.38925	-0.005035	-0.27069	-0.093231	-0.003662	-0.005188
54.097	0.02182	0.40848	-0.087585	0.009766	0.023193	-0.11627	0.31815	0	0.031586	0.25284	0.00061	-0.02533	-0.071259	0.31662	0.059204	0.10223	-0.027618	0.070953	2.4735	-0.049438	0.071869	0.1001	-0.030212	0.027161	0.036011	-0.025635	0.4042	-0.008698	-0.099335	-0.13123	-0.001831	0
54.098	0.024261	0.4335	-0.10757	0.00351	0.068817	0.030518	0.30731	-0.006561	-0.00885	0.1503	0.00412	-0.027161	-0.069275	0.38971	0.042877	0.005646	-0.068665	-0.039063	1.1441	-0.03952	0.11078	0.077209	-0.057526	0.009308	0.04715	-0.02594	0.2948	-0.009308	0.093079	-0.16632	-0.007019	-0.002747
54.099	0.027161	0.46936	-0.12253	-0.009308	0.078888	0.15396	0.28351	0.007477	-0.037537	-0.20813	-0.002289	-0.015259	-0.097961	0.28839	0.027924	-0.19516	-0.067444	-0.14206	0.068512	-0.06073	-0.026093	0.069885	-0.071564	0.077057	0.037079	-0.027924	-0.087585	-0.005188	0.14954	-0.1741	-0.001678	-0.037231
54.1	0.005035	0.57693	0.041046	0.001221	0.042725	0.17944	0.23605	0.006561	-0.062714	-0.32562	-0.000305	-0.011749	-0.097504	0.29938	0.010681	0.10971	-0.02121	-0.18631	-0.52292	-0.060272	0.009918	0.055542	-0.089417	0.034485	0.030518	-0.024109	-0.34012	-0.005188	0.15106	-0.1471	0.001221	-0.021515
54.101	0.011292	0.62424	0.037994	0.018005	0.080566	0.09613	0.26062	0.001526	-0.058899	-0.3569	-0.018768	-0.018005	-0.058594	0.17609	-0.032196	0.025024	-0.024567	-0.10239	-0.40649	-0.027161	0.041046	0.028992	-0.069122	0.01709	0.027771	-0.022278	-0.3627	-0.009308	-0.44937	-0.1236	0.000458	-0.022125
54.102	0.014038	0.62668	-0.028076	0.008545	0.096436	0.075378	0.29053	0.006256	-0.046082	-0.43381	-0.004578	0.004578	0.000153	0.22278	-0.011292	-0.016022	-0.02533	-0.11612	-0.28427	-0.003357	0.018463	0.011292	-0.060272	0.018158	0.031433	-0.028381	-0.42404	-0.005646	0.48096	-0.19089	0.001068	-0.015717
54.103	0.008087	0.60089	-0.15656	0.007019	0.070038	0.15991	0.22034	0.010986	-0.036011	-0.22827	-0.014801	-0.010529	0.004425	0.13534	0.079498	-0.085907	-0.008392	-0.11398	-0.8519	0.10086	-0.00412	0.006714	-0.068512	0.033417	0.037537	-0.020905	-0.45517	-0.009308	0.94635	-0.16678	-0.001526	-0.017242
54.104	0.005341	0.6041	-0.14053	-0.001831	0.027161	0.16205	0.23697	0.016937	0.011749	-0.055542	-0.014038	-0.019531	-0.04425	-0.13443	-0.002136	-0.025177	-0.004578	-0.11581	-0.96756	0.14343	-0.042572	0.014191	-0.084534	-0.003967	0.029755	-0.021515	-0.068665	-0.007019	-0.070953	-0.095978	0	-0.013275
54.105	0.002899	0.56122	-0.22095	-0.001831	0.000916	0.15259	0.25528	0.014343	-0.019684	-0.05661	-0.001526	-0.042572	0.057068	-0.72296	-0.079956	0.059967	-0.00412	-0.12543	-0.9639	0.10895	-0.057678	0.016937	-0.072937	-0.065918	0.021057	-0.025024	0.15259	-0.009613	-1.0915	0.015106	-0.001831	-0.021667
54.106	-0.00061	0.56046	-0.091248	-0.006561	-0.003357	0.1886	0.2623	0.009308	-0.021057	0.010071	-0.001984	-0.01358	0.14496	-0.8313	-0.08255	-0.078583	0.009308	-0.15961	-0.62424	0.05188	-0.064697	0.043182	-0.071869	-0.069427	0.032501	-0.022278	0.063171	-0.004578	-0.7309	-0.057678	0.002899	-0.014191
54.107	0.002747	0.51361	-0.065155	0.010834	0.012512	0.12604	0.2301	-0.001526	-0.007782	0.5722	-0.006409	0.012817	0.12466	-0.29526	-0.04425	-0.048065	0.010986	-0.15182	-0.005646	0.019379	-0.18448	0.065308	-0.082245	-0.029297	0.023499	-0.027161	-0.041199	-0.007629	-0.000305	-0.070648	0.000153	-0.012817
